<mxfile host="app.diagrams.net" modified="2024-07-10T09:59:01.069Z" agent="Mozilla/5.0 (Windows NT 10.0; Win64; x64) AppleWebKit/537.36 (KHTML, like Gecko) Chrome/125.0.0.0 Safari/537.36" etag="neZUmKCYHTsDiQyJQUkW" version="24.6.4" type="github" pages="2">
  <diagram id="C5RBs43oDa-KdzZeNtuy" name="Page-1">
    <mxGraphModel dx="2074" dy="738" grid="1" gridSize="10" guides="1" tooltips="1" connect="1" arrows="1" fold="1" page="1" pageScale="1" pageWidth="3300" pageHeight="4681" math="0" shadow="0">
      <root>
        <mxCell id="WIyWlLk6GJQsqaUBKTNV-0" />
        <mxCell id="WIyWlLk6GJQsqaUBKTNV-1" parent="WIyWlLk6GJQsqaUBKTNV-0" />
        <mxCell id="uYO7KWt3xW-wPPg08nNQ-57" value="" style="edgeStyle=orthogonalEdgeStyle;rounded=0;orthogonalLoop=1;jettySize=auto;html=1;" edge="1" parent="WIyWlLk6GJQsqaUBKTNV-1" source="WIyWlLk6GJQsqaUBKTNV-3" target="uYO7KWt3xW-wPPg08nNQ-56">
          <mxGeometry relative="1" as="geometry" />
        </mxCell>
        <mxCell id="uYO7KWt3xW-wPPg08nNQ-60" value="线程定时执行" style="edgeLabel;html=1;align=center;verticalAlign=middle;resizable=0;points=[];" vertex="1" connectable="0" parent="uYO7KWt3xW-wPPg08nNQ-57">
          <mxGeometry x="-0.2" y="1" relative="1" as="geometry">
            <mxPoint as="offset" />
          </mxGeometry>
        </mxCell>
        <mxCell id="WIyWlLk6GJQsqaUBKTNV-3" value="TaskSchedu服务启动" style="rounded=1;whiteSpace=wrap;html=1;fontSize=12;glass=0;strokeWidth=1;shadow=0;" parent="WIyWlLk6GJQsqaUBKTNV-1" vertex="1">
          <mxGeometry x="160" y="40" width="120" height="40" as="geometry" />
        </mxCell>
        <mxCell id="uYO7KWt3xW-wPPg08nNQ-3" value="" style="endArrow=classic;html=1;rounded=0;exitX=0.5;exitY=1;exitDx=0;exitDy=0;" edge="1" parent="WIyWlLk6GJQsqaUBKTNV-1">
          <mxGeometry width="50" height="50" relative="1" as="geometry">
            <mxPoint x="220" y="180" as="sourcePoint" />
            <mxPoint x="220" y="270" as="targetPoint" />
          </mxGeometry>
        </mxCell>
        <mxCell id="uYO7KWt3xW-wPPg08nNQ-61" value="扫描具体任务表" style="edgeLabel;html=1;align=center;verticalAlign=middle;resizable=0;points=[];" vertex="1" connectable="0" parent="uYO7KWt3xW-wPPg08nNQ-3">
          <mxGeometry x="-0.1111" y="-1" relative="1" as="geometry">
            <mxPoint as="offset" />
          </mxGeometry>
        </mxCell>
        <mxCell id="uYO7KWt3xW-wPPg08nNQ-19" value="" style="edgeStyle=orthogonalEdgeStyle;rounded=0;orthogonalLoop=1;jettySize=auto;html=1;" edge="1" parent="WIyWlLk6GJQsqaUBKTNV-1" source="uYO7KWt3xW-wPPg08nNQ-5" target="uYO7KWt3xW-wPPg08nNQ-18">
          <mxGeometry relative="1" as="geometry" />
        </mxCell>
        <mxCell id="uYO7KWt3xW-wPPg08nNQ-22" value="" style="edgeStyle=orthogonalEdgeStyle;rounded=0;orthogonalLoop=1;jettySize=auto;html=1;" edge="1" parent="WIyWlLk6GJQsqaUBKTNV-1" source="uYO7KWt3xW-wPPg08nNQ-5" target="uYO7KWt3xW-wPPg08nNQ-21">
          <mxGeometry relative="1" as="geometry" />
        </mxCell>
        <mxCell id="uYO7KWt3xW-wPPg08nNQ-24" value="" style="edgeStyle=orthogonalEdgeStyle;rounded=0;orthogonalLoop=1;jettySize=auto;html=1;" edge="1" parent="WIyWlLk6GJQsqaUBKTNV-1" source="uYO7KWt3xW-wPPg08nNQ-5" target="uYO7KWt3xW-wPPg08nNQ-23">
          <mxGeometry relative="1" as="geometry" />
        </mxCell>
        <mxCell id="uYO7KWt3xW-wPPg08nNQ-29" value="" style="edgeStyle=orthogonalEdgeStyle;rounded=0;orthogonalLoop=1;jettySize=auto;html=1;" edge="1" parent="WIyWlLk6GJQsqaUBKTNV-1" source="uYO7KWt3xW-wPPg08nNQ-5">
          <mxGeometry relative="1" as="geometry">
            <mxPoint x="360" y="290" as="targetPoint" />
          </mxGeometry>
        </mxCell>
        <mxCell id="uYO7KWt3xW-wPPg08nNQ-30" value="扫表" style="edgeLabel;html=1;align=center;verticalAlign=middle;resizable=0;points=[];" vertex="1" connectable="0" parent="uYO7KWt3xW-wPPg08nNQ-29">
          <mxGeometry x="-0.1056" y="-1" relative="1" as="geometry">
            <mxPoint as="offset" />
          </mxGeometry>
        </mxCell>
        <mxCell id="uYO7KWt3xW-wPPg08nNQ-5" value="扫描[task_job]表" style="rounded=1;whiteSpace=wrap;html=1;fontSize=12;glass=0;strokeWidth=1;shadow=0;" vertex="1" parent="WIyWlLk6GJQsqaUBKTNV-1">
          <mxGeometry x="160" y="270" width="120" height="40" as="geometry" />
        </mxCell>
        <mxCell id="uYO7KWt3xW-wPPg08nNQ-8" value="Table" style="shape=table;startSize=30;container=1;collapsible=0;childLayout=tableLayout;fixedRows=1;rowLines=0;fontStyle=0;strokeColor=default;fontSize=16;" vertex="1" parent="WIyWlLk6GJQsqaUBKTNV-1">
          <mxGeometry x="360" y="250" width="180" height="80" as="geometry" />
        </mxCell>
        <mxCell id="uYO7KWt3xW-wPPg08nNQ-9" value="" style="shape=tableRow;horizontal=0;startSize=0;swimlaneHead=0;swimlaneBody=0;top=0;left=0;bottom=0;right=0;collapsible=0;dropTarget=0;fillColor=none;points=[[0,0.5],[1,0.5]];portConstraint=eastwest;strokeColor=inherit;fontSize=16;" vertex="1" parent="uYO7KWt3xW-wPPg08nNQ-8">
          <mxGeometry y="30" width="180" height="20" as="geometry" />
        </mxCell>
        <mxCell id="uYO7KWt3xW-wPPg08nNQ-10" value="1" style="shape=partialRectangle;html=1;whiteSpace=wrap;connectable=0;fillColor=none;top=0;left=0;bottom=0;right=0;overflow=hidden;pointerEvents=1;strokeColor=inherit;fontSize=16;" vertex="1" parent="uYO7KWt3xW-wPPg08nNQ-9">
          <mxGeometry width="39" height="20" as="geometry">
            <mxRectangle width="39" height="20" as="alternateBounds" />
          </mxGeometry>
        </mxCell>
        <mxCell id="uYO7KWt3xW-wPPg08nNQ-11" value="表A&amp;nbsp; ID" style="shape=partialRectangle;html=1;whiteSpace=wrap;connectable=0;fillColor=none;top=0;left=0;bottom=0;right=0;align=left;spacingLeft=6;overflow=hidden;strokeColor=inherit;fontSize=16;" vertex="1" parent="uYO7KWt3xW-wPPg08nNQ-9">
          <mxGeometry x="39" width="141" height="20" as="geometry">
            <mxRectangle width="141" height="20" as="alternateBounds" />
          </mxGeometry>
        </mxCell>
        <mxCell id="uYO7KWt3xW-wPPg08nNQ-12" value="" style="shape=tableRow;horizontal=0;startSize=0;swimlaneHead=0;swimlaneBody=0;top=0;left=0;bottom=0;right=0;collapsible=0;dropTarget=0;fillColor=none;points=[[0,0.5],[1,0.5]];portConstraint=eastwest;strokeColor=inherit;fontSize=16;" vertex="1" parent="uYO7KWt3xW-wPPg08nNQ-8">
          <mxGeometry y="50" width="180" height="30" as="geometry" />
        </mxCell>
        <mxCell id="uYO7KWt3xW-wPPg08nNQ-13" value="2" style="shape=partialRectangle;html=1;whiteSpace=wrap;connectable=0;fillColor=none;top=0;left=0;bottom=0;right=0;overflow=hidden;strokeColor=inherit;fontSize=16;" vertex="1" parent="uYO7KWt3xW-wPPg08nNQ-12">
          <mxGeometry width="39" height="30" as="geometry">
            <mxRectangle width="39" height="30" as="alternateBounds" />
          </mxGeometry>
        </mxCell>
        <mxCell id="uYO7KWt3xW-wPPg08nNQ-14" value="表B&amp;nbsp; ID" style="shape=partialRectangle;html=1;whiteSpace=wrap;connectable=0;fillColor=none;top=0;left=0;bottom=0;right=0;align=left;spacingLeft=6;overflow=hidden;strokeColor=inherit;fontSize=16;" vertex="1" parent="uYO7KWt3xW-wPPg08nNQ-12">
          <mxGeometry x="39" width="141" height="30" as="geometry">
            <mxRectangle width="141" height="30" as="alternateBounds" />
          </mxGeometry>
        </mxCell>
        <mxCell id="uYO7KWt3xW-wPPg08nNQ-18" value="扫描[task_job]表" style="rounded=1;whiteSpace=wrap;html=1;fontSize=12;glass=0;strokeWidth=1;shadow=0;" vertex="1" parent="uYO7KWt3xW-wPPg08nNQ-12">
          <mxGeometry x="180" width="NaN" height="30" as="geometry">
            <mxRectangle width="NaN" height="30" as="alternateBounds" />
          </mxGeometry>
        </mxCell>
        <mxCell id="uYO7KWt3xW-wPPg08nNQ-21" value="" style="whiteSpace=wrap;html=1;rounded=1;glass=0;strokeWidth=1;shadow=0;" vertex="1" parent="uYO7KWt3xW-wPPg08nNQ-12">
          <mxGeometry width="NaN" height="30" as="geometry">
            <mxRectangle width="NaN" height="30" as="alternateBounds" />
          </mxGeometry>
        </mxCell>
        <mxCell id="uYO7KWt3xW-wPPg08nNQ-23" value="扫描[task_job]表" style="rounded=1;whiteSpace=wrap;html=1;fontSize=12;glass=0;strokeWidth=1;shadow=0;" vertex="1" parent="uYO7KWt3xW-wPPg08nNQ-12">
          <mxGeometry width="NaN" height="30" as="geometry">
            <mxRectangle width="NaN" height="30" as="alternateBounds" />
          </mxGeometry>
        </mxCell>
        <mxCell id="uYO7KWt3xW-wPPg08nNQ-31" value="" style="endArrow=classic;html=1;rounded=0;exitX=0.5;exitY=1;exitDx=0;exitDy=0;" edge="1" parent="WIyWlLk6GJQsqaUBKTNV-1">
          <mxGeometry width="50" height="50" relative="1" as="geometry">
            <mxPoint x="219.5" y="320" as="sourcePoint" />
            <mxPoint x="219.5" y="410" as="targetPoint" />
          </mxGeometry>
        </mxCell>
        <mxCell id="uYO7KWt3xW-wPPg08nNQ-69" value="根据执行时间和当前时间比较" style="edgeLabel;html=1;align=center;verticalAlign=middle;resizable=0;points=[];" vertex="1" connectable="0" parent="uYO7KWt3xW-wPPg08nNQ-31">
          <mxGeometry x="-0.2" y="1" relative="1" as="geometry">
            <mxPoint as="offset" />
          </mxGeometry>
        </mxCell>
        <mxCell id="uYO7KWt3xW-wPPg08nNQ-34" value="根据next_execute_time时间判断&lt;br&gt;&amp;lt;= now() + 30s(预处理时间)" style="text;html=1;align=center;verticalAlign=middle;resizable=0;points=[];autosize=1;strokeColor=none;fillColor=none;" vertex="1" parent="WIyWlLk6GJQsqaUBKTNV-1">
          <mxGeometry x="360" y="215" width="200" height="40" as="geometry" />
        </mxCell>
        <mxCell id="uYO7KWt3xW-wPPg08nNQ-38" value="" style="edgeStyle=orthogonalEdgeStyle;rounded=0;orthogonalLoop=1;jettySize=auto;html=1;" edge="1" parent="WIyWlLk6GJQsqaUBKTNV-1">
          <mxGeometry relative="1" as="geometry">
            <mxPoint x="350" y="464.5" as="targetPoint" />
            <mxPoint x="260" y="464.5" as="sourcePoint" />
          </mxGeometry>
        </mxCell>
        <mxCell id="uYO7KWt3xW-wPPg08nNQ-42" value="YES" style="edgeLabel;html=1;align=center;verticalAlign=middle;resizable=0;points=[];" vertex="1" connectable="0" parent="uYO7KWt3xW-wPPg08nNQ-38">
          <mxGeometry x="0.1404" y="9" relative="1" as="geometry">
            <mxPoint x="-11" y="20" as="offset" />
          </mxGeometry>
        </mxCell>
        <mxCell id="uYO7KWt3xW-wPPg08nNQ-49" value="" style="edgeStyle=orthogonalEdgeStyle;rounded=0;orthogonalLoop=1;jettySize=auto;html=1;entryX=0.425;entryY=0.025;entryDx=0;entryDy=0;entryPerimeter=0;" edge="1" parent="WIyWlLk6GJQsqaUBKTNV-1" source="uYO7KWt3xW-wPPg08nNQ-36" target="uYO7KWt3xW-wPPg08nNQ-52">
          <mxGeometry relative="1" as="geometry">
            <mxPoint x="220" y="600" as="targetPoint" />
          </mxGeometry>
        </mxCell>
        <mxCell id="uYO7KWt3xW-wPPg08nNQ-50" value="NO" style="edgeLabel;html=1;align=center;verticalAlign=middle;resizable=0;points=[];" vertex="1" connectable="0" parent="uYO7KWt3xW-wPPg08nNQ-49">
          <mxGeometry x="-0.1" y="-2" relative="1" as="geometry">
            <mxPoint as="offset" />
          </mxGeometry>
        </mxCell>
        <mxCell id="Pwn9KfxtH7qOfbQOT_G8-30" value="&lt;span style=&quot;font-size: 12px; text-wrap: wrap; background-color: rgb(251, 251, 251);&quot;&gt;执行时间大于now小于now+30s&lt;/span&gt;" style="edgeLabel;html=1;align=center;verticalAlign=middle;resizable=0;points=[];" vertex="1" connectable="0" parent="uYO7KWt3xW-wPPg08nNQ-49">
          <mxGeometry x="-0.075" y="-1" relative="1" as="geometry">
            <mxPoint as="offset" />
          </mxGeometry>
        </mxCell>
        <mxCell id="uYO7KWt3xW-wPPg08nNQ-36" value="执行时间小于now" style="rhombus;whiteSpace=wrap;html=1;" vertex="1" parent="WIyWlLk6GJQsqaUBKTNV-1">
          <mxGeometry x="180" y="410" width="80" height="110" as="geometry" />
        </mxCell>
        <mxCell id="uYO7KWt3xW-wPPg08nNQ-63" value="" style="edgeStyle=orthogonalEdgeStyle;rounded=0;orthogonalLoop=1;jettySize=auto;html=1;exitX=0.5;exitY=1;exitDx=0;exitDy=0;entryX=0;entryY=0.5;entryDx=0;entryDy=0;" edge="1" parent="WIyWlLk6GJQsqaUBKTNV-1" source="uYO7KWt3xW-wPPg08nNQ-39" target="uYO7KWt3xW-wPPg08nNQ-62">
          <mxGeometry relative="1" as="geometry">
            <Array as="points">
              <mxPoint x="410" y="540" />
            </Array>
          </mxGeometry>
        </mxCell>
        <mxCell id="uYO7KWt3xW-wPPg08nNQ-70" value="触发" style="edgeLabel;html=1;align=center;verticalAlign=middle;resizable=0;points=[];" vertex="1" connectable="0" parent="uYO7KWt3xW-wPPg08nNQ-63">
          <mxGeometry y="-1" relative="1" as="geometry">
            <mxPoint as="offset" />
          </mxGeometry>
        </mxCell>
        <mxCell id="Pwn9KfxtH7qOfbQOT_G8-12" value="" style="edgeStyle=orthogonalEdgeStyle;rounded=0;orthogonalLoop=1;jettySize=auto;html=1;" edge="1" parent="WIyWlLk6GJQsqaUBKTNV-1" source="uYO7KWt3xW-wPPg08nNQ-39">
          <mxGeometry relative="1" as="geometry">
            <mxPoint x="550" y="470" as="targetPoint" />
          </mxGeometry>
        </mxCell>
        <mxCell id="uYO7KWt3xW-wPPg08nNQ-39" value="放入任务触发线程池" style="rounded=1;whiteSpace=wrap;html=1;fontSize=12;glass=0;strokeWidth=1;shadow=0;" vertex="1" parent="WIyWlLk6GJQsqaUBKTNV-1">
          <mxGeometry x="350" y="445" width="120" height="40" as="geometry" />
        </mxCell>
        <mxCell id="Pwn9KfxtH7qOfbQOT_G8-5" value="" style="edgeStyle=orthogonalEdgeStyle;rounded=0;orthogonalLoop=1;jettySize=auto;html=1;" edge="1" parent="WIyWlLk6GJQsqaUBKTNV-1" source="uYO7KWt3xW-wPPg08nNQ-52">
          <mxGeometry relative="1" as="geometry">
            <mxPoint x="540" y="655" as="targetPoint" />
          </mxGeometry>
        </mxCell>
        <mxCell id="Pwn9KfxtH7qOfbQOT_G8-19" value="" style="edgeStyle=orthogonalEdgeStyle;rounded=0;orthogonalLoop=1;jettySize=auto;html=1;entryX=0.5;entryY=0;entryDx=0;entryDy=0;" edge="1" parent="WIyWlLk6GJQsqaUBKTNV-1" source="uYO7KWt3xW-wPPg08nNQ-52" target="Pwn9KfxtH7qOfbQOT_G8-18">
          <mxGeometry relative="1" as="geometry">
            <mxPoint x="400" y="755" as="targetPoint" />
            <Array as="points" />
          </mxGeometry>
        </mxCell>
        <mxCell id="Pwn9KfxtH7qOfbQOT_G8-23" value="取出放入的数据" style="edgeLabel;html=1;align=center;verticalAlign=middle;resizable=0;points=[];" vertex="1" connectable="0" parent="Pwn9KfxtH7qOfbQOT_G8-19">
          <mxGeometry x="0.1098" relative="1" as="geometry">
            <mxPoint as="offset" />
          </mxGeometry>
        </mxCell>
        <mxCell id="uYO7KWt3xW-wPPg08nNQ-52" value="放入时间轮" style="rounded=1;whiteSpace=wrap;html=1;fontSize=12;glass=0;strokeWidth=1;shadow=0;" vertex="1" parent="WIyWlLk6GJQsqaUBKTNV-1">
          <mxGeometry x="170" y="635" width="120" height="40" as="geometry" />
        </mxCell>
        <mxCell id="uYO7KWt3xW-wPPg08nNQ-58" value="" style="edgeStyle=orthogonalEdgeStyle;rounded=0;orthogonalLoop=1;jettySize=auto;html=1;entryX=0.205;entryY=-0.1;entryDx=0;entryDy=0;entryPerimeter=0;" edge="1" parent="WIyWlLk6GJQsqaUBKTNV-1" source="uYO7KWt3xW-wPPg08nNQ-56" target="uYO7KWt3xW-wPPg08nNQ-34">
          <mxGeometry relative="1" as="geometry">
            <mxPoint x="360" y="160" as="targetPoint" />
          </mxGeometry>
        </mxCell>
        <mxCell id="uYO7KWt3xW-wPPg08nNQ-59" value="DB" style="edgeLabel;html=1;align=center;verticalAlign=middle;resizable=0;points=[];" vertex="1" connectable="0" parent="uYO7KWt3xW-wPPg08nNQ-58">
          <mxGeometry x="-0.4419" relative="1" as="geometry">
            <mxPoint as="offset" />
          </mxGeometry>
        </mxCell>
        <mxCell id="uYO7KWt3xW-wPPg08nNQ-56" value="基于mysql锁或者redis....实现只有一个执行器触发" style="rounded=1;whiteSpace=wrap;html=1;fontSize=12;glass=0;strokeWidth=1;shadow=0;" vertex="1" parent="WIyWlLk6GJQsqaUBKTNV-1">
          <mxGeometry x="160" y="140" width="120" height="40" as="geometry" />
        </mxCell>
        <mxCell id="uYO7KWt3xW-wPPg08nNQ-64" value="" style="edgeStyle=orthogonalEdgeStyle;rounded=0;orthogonalLoop=1;jettySize=auto;html=1;entryX=0;entryY=0.5;entryDx=0;entryDy=0;" edge="1" parent="WIyWlLk6GJQsqaUBKTNV-1" source="uYO7KWt3xW-wPPg08nNQ-62" target="uYO7KWt3xW-wPPg08nNQ-71">
          <mxGeometry relative="1" as="geometry">
            <mxPoint x="750" y="480" as="targetPoint" />
          </mxGeometry>
        </mxCell>
        <mxCell id="uYO7KWt3xW-wPPg08nNQ-67" value="判断" style="edgeLabel;html=1;align=center;verticalAlign=middle;resizable=0;points=[];" vertex="1" connectable="0" parent="uYO7KWt3xW-wPPg08nNQ-64">
          <mxGeometry x="-0.2298" y="-2" relative="1" as="geometry">
            <mxPoint as="offset" />
          </mxGeometry>
        </mxCell>
        <mxCell id="uYO7KWt3xW-wPPg08nNQ-62" value="更新下一次执行的时间" style="whiteSpace=wrap;html=1;rounded=1;glass=0;strokeWidth=1;shadow=0;" vertex="1" parent="WIyWlLk6GJQsqaUBKTNV-1">
          <mxGeometry x="510" y="510" width="120" height="60" as="geometry" />
        </mxCell>
        <mxCell id="uYO7KWt3xW-wPPg08nNQ-72" value="" style="edgeStyle=orthogonalEdgeStyle;rounded=0;orthogonalLoop=1;jettySize=auto;html=1;exitX=0.5;exitY=1;exitDx=0;exitDy=0;entryX=0.5;entryY=0;entryDx=0;entryDy=0;" edge="1" parent="WIyWlLk6GJQsqaUBKTNV-1" source="uYO7KWt3xW-wPPg08nNQ-71" target="uYO7KWt3xW-wPPg08nNQ-52">
          <mxGeometry relative="1" as="geometry">
            <mxPoint x="910" y="465" as="targetPoint" />
          </mxGeometry>
        </mxCell>
        <mxCell id="uYO7KWt3xW-wPPg08nNQ-73" value="YES" style="edgeLabel;html=1;align=center;verticalAlign=middle;resizable=0;points=[];" vertex="1" connectable="0" parent="uYO7KWt3xW-wPPg08nNQ-72">
          <mxGeometry x="0.2554" y="2" relative="1" as="geometry">
            <mxPoint as="offset" />
          </mxGeometry>
        </mxCell>
        <mxCell id="uYO7KWt3xW-wPPg08nNQ-71" value="now+30s&lt;br&gt;大于执行时间" style="rhombus;whiteSpace=wrap;html=1;" vertex="1" parent="WIyWlLk6GJQsqaUBKTNV-1">
          <mxGeometry x="720" y="485" width="80" height="110" as="geometry" />
        </mxCell>
        <mxCell id="Pwn9KfxtH7qOfbQOT_G8-3" value="" style="endArrow=classic;html=1;rounded=0;exitX=1;exitY=0.5;exitDx=0;exitDy=0;" edge="1" parent="WIyWlLk6GJQsqaUBKTNV-1">
          <mxGeometry width="50" height="50" relative="1" as="geometry">
            <mxPoint x="530" y="469.5" as="sourcePoint" />
            <mxPoint x="900" y="470" as="targetPoint" />
            <Array as="points">
              <mxPoint x="760" y="470" />
            </Array>
          </mxGeometry>
        </mxCell>
        <mxCell id="Pwn9KfxtH7qOfbQOT_G8-11" value="根据路由策略&lt;br&gt;(这边之后可以根据执行器心跳返回的服务器资源情况进行选择执行)" style="edgeLabel;html=1;align=center;verticalAlign=middle;resizable=0;points=[];" vertex="1" connectable="0" parent="Pwn9KfxtH7qOfbQOT_G8-3">
          <mxGeometry x="-0.376" y="1" relative="1" as="geometry">
            <mxPoint x="25" y="-4" as="offset" />
          </mxGeometry>
        </mxCell>
        <mxCell id="Pwn9KfxtH7qOfbQOT_G8-6" value="更新下次执行时间" style="rounded=1;whiteSpace=wrap;html=1;fontSize=12;glass=0;strokeWidth=1;shadow=0;" vertex="1" parent="WIyWlLk6GJQsqaUBKTNV-1">
          <mxGeometry x="540" y="635" width="120" height="40" as="geometry" />
        </mxCell>
        <mxCell id="Pwn9KfxtH7qOfbQOT_G8-13" value="" style="edgeStyle=orthogonalEdgeStyle;rounded=0;orthogonalLoop=1;jettySize=auto;html=1;" edge="1" parent="WIyWlLk6GJQsqaUBKTNV-1" source="Pwn9KfxtH7qOfbQOT_G8-10">
          <mxGeometry relative="1" as="geometry">
            <mxPoint x="1160" y="470" as="targetPoint" />
          </mxGeometry>
        </mxCell>
        <mxCell id="Pwn9KfxtH7qOfbQOT_G8-15" value="RPC/HTTP远程调用" style="edgeLabel;html=1;align=center;verticalAlign=middle;resizable=0;points=[];" vertex="1" connectable="0" parent="Pwn9KfxtH7qOfbQOT_G8-13">
          <mxGeometry x="-0.3025" y="-1" relative="1" as="geometry">
            <mxPoint x="21" y="-1" as="offset" />
          </mxGeometry>
        </mxCell>
        <mxCell id="Pwn9KfxtH7qOfbQOT_G8-10" value="立即执行" style="rounded=1;whiteSpace=wrap;html=1;fontSize=12;glass=0;strokeWidth=1;shadow=0;" vertex="1" parent="WIyWlLk6GJQsqaUBKTNV-1">
          <mxGeometry x="900" y="450" width="120" height="40" as="geometry" />
        </mxCell>
        <mxCell id="Pwn9KfxtH7qOfbQOT_G8-16" value="执行器服务" style="rounded=1;whiteSpace=wrap;html=1;fontSize=12;glass=0;strokeWidth=1;shadow=0;" vertex="1" parent="WIyWlLk6GJQsqaUBKTNV-1">
          <mxGeometry x="1160" y="450" width="120" height="40" as="geometry" />
        </mxCell>
        <mxCell id="Pwn9KfxtH7qOfbQOT_G8-21" value="" style="edgeStyle=orthogonalEdgeStyle;rounded=0;orthogonalLoop=1;jettySize=auto;html=1;entryX=0;entryY=0.5;entryDx=0;entryDy=0;" edge="1" parent="WIyWlLk6GJQsqaUBKTNV-1" source="Pwn9KfxtH7qOfbQOT_G8-18" target="Pwn9KfxtH7qOfbQOT_G8-25">
          <mxGeometry relative="1" as="geometry">
            <mxPoint x="710" y="870" as="targetPoint" />
          </mxGeometry>
        </mxCell>
        <mxCell id="Pwn9KfxtH7qOfbQOT_G8-24" value="每秒定时从时间轮获取数据" style="edgeLabel;html=1;align=center;verticalAlign=middle;resizable=0;points=[];" vertex="1" connectable="0" parent="Pwn9KfxtH7qOfbQOT_G8-21">
          <mxGeometry x="-0.2636" y="3" relative="1" as="geometry">
            <mxPoint as="offset" />
          </mxGeometry>
        </mxCell>
        <mxCell id="Pwn9KfxtH7qOfbQOT_G8-18" value="时间轮执行线程" style="rounded=1;whiteSpace=wrap;html=1;fontSize=12;glass=0;strokeWidth=1;shadow=0;" vertex="1" parent="WIyWlLk6GJQsqaUBKTNV-1">
          <mxGeometry x="340" y="880" width="120" height="40" as="geometry" />
        </mxCell>
        <mxCell id="Pwn9KfxtH7qOfbQOT_G8-26" value="" style="edgeStyle=orthogonalEdgeStyle;rounded=0;orthogonalLoop=1;jettySize=auto;html=1;entryX=0.5;entryY=1;entryDx=0;entryDy=0;" edge="1" parent="WIyWlLk6GJQsqaUBKTNV-1" source="Pwn9KfxtH7qOfbQOT_G8-25" target="Pwn9KfxtH7qOfbQOT_G8-10">
          <mxGeometry relative="1" as="geometry">
            <mxPoint x="750" y="860" as="targetPoint" />
          </mxGeometry>
        </mxCell>
        <mxCell id="Pwn9KfxtH7qOfbQOT_G8-27" value="路由策略" style="edgeLabel;html=1;align=center;verticalAlign=middle;resizable=0;points=[];" vertex="1" connectable="0" parent="Pwn9KfxtH7qOfbQOT_G8-26">
          <mxGeometry x="-0.3212" y="-3" relative="1" as="geometry">
            <mxPoint as="offset" />
          </mxGeometry>
        </mxCell>
        <mxCell id="Pwn9KfxtH7qOfbQOT_G8-25" value="放入任务触发线程池" style="rounded=1;whiteSpace=wrap;html=1;fontSize=12;glass=0;strokeWidth=1;shadow=0;" vertex="1" parent="WIyWlLk6GJQsqaUBKTNV-1">
          <mxGeometry x="730" y="870" width="120" height="40" as="geometry" />
        </mxCell>
      </root>
    </mxGraphModel>
  </diagram>
  <diagram id="4U36TBqC4UnoozTllh_v" name="第 2 页">
    <mxGraphModel grid="1" page="1" gridSize="10" guides="1" tooltips="1" connect="1" arrows="1" fold="1" pageScale="1" pageWidth="3300" pageHeight="4681" math="0" shadow="0">
      <root>
        <mxCell id="0" />
        <mxCell id="1" parent="0" />
      </root>
    </mxGraphModel>
  </diagram>
</mxfile>
